<svg xmlns="http://www.w3.org/2000/svg" width="36.782" height="53.486" viewBox="0 0 36.782 53.486">
  <g id="sort_1_" data-name="sort (1)" transform="translate(0 0)">
    <path id="Path_988" data-name="Path 988" d="M15.99,28.58H48.01a2.375,2.375,0,0,0,1.81-3.9L33.81,6.08a2.4,2.4,0,0,0-3.62,0L14.18,24.68A2.375,2.375,0,0,0,15.99,28.58Z" transform="translate(-13.609 -5.257)" fill="#E4E5E9"/>
    <path id="Path_989" data-name="Path 989" d="M48.01,35.42H15.99a2.375,2.375,0,0,0-1.81,3.9l16.01,18.6a2.4,2.4,0,0,0,3.62,0l16.01-18.6A2.375,2.375,0,0,0,48.01,35.42Z" transform="translate(-13.609 -5.257)" fill="#E4E5E9"/>
  </g>
</svg>
